<?xml version="1.0" encoding="UTF-8" standalone="no"?>
<svg
   xmlns:dc="http://purl.org/dc/elements/1.1/"
   xmlns:cc="http://creativecommons.org/ns#"
   xmlns:rdf="http://www.w3.org/1999/02/22-rdf-syntax-ns#"
   xmlns:svg="http://www.w3.org/2000/svg"
   xmlns="http://www.w3.org/2000/svg"
   xmlns:sodipodi="http://sodipodi.sourceforge.net/DTD/sodipodi-0.dtd"
   xmlns:inkscape="http://www.inkscape.org/namespaces/inkscape"
   version="1.1"
   id="Layer_1"
   x="0px"
   y="0px"
   width="1000px"
   height="1000px"
   viewBox="0 0 1000 1000"
   style="enable-background:new 0 0 1000 1000;"
   xml:space="preserve"
   sodipodi:docname="ring_head.svg"
   inkscape:version="1.0 (4035a4fb49, 2020-05-01)"><metadata
   id="metadata737"><rdf:RDF><cc:Work
       rdf:about=""><dc:format>image/svg+xml</dc:format><dc:type
         rdf:resource="http://purl.org/dc/dcmitype/StillImage" /><dc:title></dc:title></cc:Work></rdf:RDF></metadata><defs
   id="defs735"><linearGradient
     gradientTransform="matrix(7.0111126,0,0,7.8143512,-1176.8213,-1099.4954)"
     id="color-2-5"
     gradientUnits="userSpaceOnUse"
     y2="186.71449"
     x2="214.4313"
     y1="181.0054"
     x1="218.53149"><stop
       id="stop7-6"
       stop-color="#070707"
       offset="0.09345" /><stop
       id="stop9-6"
       stop-color="#111111"
       offset="0.1987" /><stop
       id="stop11-2"
       stop-color="#252525"
       offset="0.4651" /><stop
       id="stop13-4"
       stop-color="#313131"
       offset="0.7324" /><stop
       id="stop15-8"
       stop-color="#353535"
       offset="1" /></linearGradient><linearGradient
     gradientTransform="matrix(7.0111126,0,0,7.8143512,-1176.8213,-1099.4954)"
     id="color-1-0"
     gradientUnits="userSpaceOnUse"
     y2="181.72681"
     x2="259.0824"
     y1="184.8199"
     x1="261.9693"><stop
       id="stop2-3"
       stop-color="#070707"
       offset="0" /><stop
       id="stop4-8"
       stop-color="#353535"
       offset="0.7928" /></linearGradient></defs><sodipodi:namedview
   inkscape:document-rotation="0"
   pagecolor="#ffffff"
   bordercolor="#666666"
   borderopacity="1"
   objecttolerance="10"
   gridtolerance="10"
   guidetolerance="10"
   inkscape:pageopacity="0"
   inkscape:pageshadow="2"
   inkscape:window-width="1920"
   inkscape:window-height="1017"
   id="namedview733"
   showgrid="false"
   inkscape:zoom="1.1393633"
   inkscape:cx="444.28367"
   inkscape:cy="386.32989"
   inkscape:window-x="-8"
   inkscape:window-y="-8"
   inkscape:window-maximized="1"
   inkscape:current-layer="illustration" />
<g
   id="illustration"
   transform="translate(1.1,-10)">
	
	
	
	
	
	
	
	
	
	
	
	
	
	
	
	
	
	
	
	
	
	
	
	
	<g
   id="g556">
		<path
   id="rightMiddleLip_2_"
   d="m 487.5,209.6 c 0.3,0 0.5,0.3 0.5,0.5 0,0.2 -0.3,0.5 -0.5,0.5 -0.3,0 -0.5,-0.3 -0.5,-0.5 0,-0.2 0.3,-0.5 0.5,-0.5 z" />
		<circle
   id="upperLipBottomMid_1_"
   cx="499.29999"
   cy="209.89999"
   r="0.5" />
		<circle
   id="rightUpperLipBottom1_1_"
   cx="496.79999"
   cy="209.60001"
   r="0.5" />
		<path
   id="leftMiddleLip_2_"
   d="m 511.1,209.6 c 0.3,0 0.5,0.3 0.5,0.5 0,0.2 -0.3,0.5 -0.5,0.5 -0.2,0 -0.5,-0.3 -0.5,-0.5 0,-0.2 0.2,-0.5 0.5,-0.5 z" />
		<circle
   id="leftUpperLipBottom1_1_"
   cx="501.79999"
   cy="209.60001"
   r="0.5" />
		<path
   style="fill:#df7977;stroke:#df7977;stroke-width:2;stroke-miterlimit:10"
   d="m 488,210.1 c 0,0 7.7,-0.1 11.3,-0.1 3.6,0 11.9,-0.1 11.9,-0.1 0,0 -6.9,2.6 -11.9,2.6 -5.1,0 -11.3,-2.4 -11.3,-2.4 z"
   id="path551" />
		<circle
   id="lowerLipTopMid_2_"
   cx="499.29999"
   cy="211.89999"
   r="0.5" />
		<circle
   id="rightLowerLipTop0_2_"
   cx="496.79999"
   cy="211.39999"
   r="0.5" />
		<circle
   id="leftLowerLipTop0_2_"
   cx="501.79999"
   cy="211.39999"
   r="0.5" />
	</g>
	<g
   id="g568">
		<ellipse
   style="fill:#df7977"
   cx="464.10001"
   cy="196.5"
   rx="7.8000002"
   ry="6.1999998"
   id="ellipse558" />
		<ellipse
   style="fill:#2c323a"
   cx="464"
   cy="180.60001"
   rx="3.5999999"
   ry="5.8000002"
   id="ellipse560" />
		<circle
   id="rightEye0_1_"
   cx="468.60001"
   cy="160.2"
   r="0.80000001" />
		<circle
   id="rightEye1_1_"
   cx="473.79999"
   cy="156.5"
   r="0.80000001" />
		<circle
   id="rightEye5_1_"
   cx="473.79999"
   cy="162.5"
   r="0.80000001" />
		<circle
   id="rightEye2_1_"
   cx="480.10001"
   cy="156.5"
   r="0.80000001" />
		<circle
   id="rightEye3_1_"
   cx="485.29999"
   cy="160.7"
   r="0.80000001" />
		<circle
   id="rightEye4_1_"
   cx="480.10001"
   cy="161.7"
   r="0.80000001" />
	</g>
	<g
   id="g580">
		<ellipse
   style="fill:#2c323a"
   cx="532.79999"
   cy="179.60001"
   rx="3.5999999"
   ry="5.8000002"
   id="ellipse570" />
		<ellipse
   style="fill:#df7977"
   cx="533.20001"
   cy="196.5"
   rx="7.8000002"
   ry="6.1999998"
   id="ellipse572" />
		<circle
   id="leftEye0_1_"
   cx="528.20001"
   cy="160.2"
   r="0.80000001" />
		<circle
   id="leftEye1_1_"
   cx="523"
   cy="156.5"
   r="0.80000001" />
		<circle
   id="leftEye5_1_"
   cx="523"
   cy="162.5"
   r="0.80000001" />
		<circle
   id="leftEye2_1_"
   cx="516.70001"
   cy="156.5"
   r="0.80000001" />
		<circle
   id="leftEye3_1_"
   cx="511.5"
   cy="160.7"
   r="0.80000001" />
		<circle
   id="leftEye4_1_"
   cx="516.70001"
   cy="161.7"
   r="0.80000001" />
	</g>
	<g
   id="g589">
		<path
   style="fill:#2c323a"
   d="m 518.8,159.9 c 10.7,-5 14.2,-5 19.2,0.7 -5,-0.7 -5.7,2.8 -19.2,-0.7 z"
   id="path582" />
		<circle
   id="leftBrow1_1_"
   cx="530.09998"
   cy="148.7"
   r="0.80000001" />
		<circle
   id="leftBrow4_1_"
   cx="506.5"
   cy="150.8"
   r="0.80000001" />
		<circle
   id="leftBrow3_1_"
   cx="516.5"
   cy="147.60001"
   r="0.80000001" />
		<circle
   id="leftBrow0_1_"
   cx="534.09998"
   cy="151.60001"
   r="0.80000001" />
		<circle
   id="leftBrow2_1_"
   cx="523.79999"
   cy="147.2"
   r="0.80000001" />
	</g>
	<g
   id="g598">
		<path
   style="fill:#2c323a"
   d="m 478,159.9 c -10.7,-5 -14.2,-5 -19.2,0.7 5,-0.7 5.7,2.8 19.2,-0.7 z"
   id="path591" />
		<circle
   id="rightBrow1_1_"
   cx="466.39999"
   cy="148.3"
   r="0.80000001" />
		<circle
   id="rightBrow4_1_"
   cx="489.70001"
   cy="151.3"
   r="0.80000001" />
		<circle
   id="rightBrow3_1_"
   cx="479.89999"
   cy="147.3"
   r="0.80000001" />
		<circle
   id="rightBrow0_1_"
   cx="462.39999"
   cy="152"
   r="0.80000001" />
		<circle
   id="rightBrow2_1_"
   cx="472.60001"
   cy="147.3"
   r="0.80000001" />
	</g>
	
	<g
   id="g613"
   style="display:inline">
		<path
   style="fill:#2c323a;stroke:#2c323a;stroke-width:2;stroke-miterlimit:10"
   d="m 496.4,185.8 c -1.2,0 -4.6,1.6 -5.8,5.2 -0.2,1.2 0.6,5.8 6,4.1 -0.1,-1 -4.7,-1.1 -4.5,-3.7 0.3,-1.8 2,-1.8 4.3,-5.6 z"
   id="path602" />
		<circle
   id="nose1_1_"
   cx="497.60001"
   cy="161.2"
   r="0.80000001" />
		<circle
   id="nose0_1_"
   cx="497.60001"
   cy="155.39999"
   r="0.80000001" />
		<circle
   id="nose3_1_"
   cx="497.60001"
   cy="173.8"
   r="0.80000001" />
		<circle
   id="rightNose0_1_"
   cx="486.89999"
   cy="178.3"
   r="0.80000001" />
		<circle
   id="rightNose1_1_"
   cx="492.10001"
   cy="178.3"
   r="0.80000001" />
		<circle
   id="nose2_1_"
   cx="497.60001"
   cy="166.7"
   r="0.80000001" />
		<circle
   id="nose4_1_"
   cx="497.60001"
   cy="179.10001"
   r="0.80000001" />
		<circle
   id="leftNose0_1_"
   cx="508"
   cy="178.3"
   r="0.80000001" />
		<circle
   id="leftNose1_1_"
   cx="503.20001"
   cy="178.3"
   r="0.80000001" />
	</g>
<path
   d="m 426.075,186.3288 c 0,-36.44938 31.50197,-65.99741 70.36161,-65.99741 38.85967,0 70.36166,29.54803 70.36166,65.99741 0,36.44947 -31.50199,65.99738 -70.36166,65.99738 -38.85964,0 -70.36161,-29.54804 -70.36161,-65.99738 z"
   id="path827"
   inkscape:connector-curvature="0"
   style="mix-blend-mode:normal;fill:#efefef;fill-rule:nonzero;stroke:#000000;stroke-width:0.162792;stroke-linecap:round;stroke-linejoin:round;stroke-miterlimit:10;stroke-dasharray:none;stroke-dashoffset:0" /><path
   style="mix-blend-mode:normal;fill:#000000;fill-rule:nonzero;stroke:none;stroke-width:0.161218;stroke-linecap:butt;stroke-linejoin:miter;stroke-miterlimit:10;stroke-dasharray:none;stroke-dashoffset:0"
   inkscape:connector-curvature="0"
   id="path4532"
   d="m 448.93101,172.2 c 0.0259,-9.79059 11.68433,-19.27892 19.27096,-19.5115 12.73808,-0.37163 17.74902,4.30234 26.78753,7.8139 6.50955,2.53489 15.64158,5.186 23.27517,1.8837 4.40211,-1.90687 11.84824,-4.74418 17.53822,-3.1628 4.07438,1.13919 10.79463,6.13949 10.77115,12.76745 0,6.20933 -4.33179,13.65113 -13.58098,14.37205 -5.61983,0.44204 -10.27945,-2.20931 -15.12654,-3.51157 -3.6059,-0.97648 -6.93095,-1.69774 -10.65413,-1.58142 -5.50264,0.18572 -10.30277,1.58142 -18.56857,5.62784 -6.50953,3.18609 -12.94879,6.44191 -20.69939,5.27913 C 457.8992,190.66513 448.93101,181.73497 448.93101,172.2 Z" /><path
   inkscape:connector-curvature="0"
   id="path1208"
   d="m 468.43192,165.82389 h 6.42867 8.48476 c 3.59173,0 4.21629,5.56386 4.16436,8.21497 0,0.41122 -0.20787,0.37458 -0.36427,0.19503 -0.52056,-0.55965 -0.91068,-1.56782 -2.00416,-1.60486 l -18.84349,-0.0779 c -0.88482,0 -1.37945,1.1193 -1.84797,1.86619 -0.10861,0.15582 -0.36427,0.19503 -0.33841,-0.15581 0.28662,-3.02456 1.35377,-8.47631 4.3204,-8.43885 z"
   style="mix-blend-mode:normal;fill:#00ffff;fill-rule:nonzero;stroke:none;stroke-width:0.215378;stroke-linecap:butt;stroke-linejoin:miter;stroke-miterlimit:10;stroke-dasharray:none;stroke-dashoffset:0" /><path
   style="mix-blend-mode:normal;fill:#00ffff;fill-rule:nonzero;stroke:none;stroke-width:0.215378;stroke-linecap:butt;stroke-linejoin:miter;stroke-miterlimit:10;stroke-dasharray:none;stroke-dashoffset:0"
   d="m 512.16491,165.62232 h 6.42867 8.48476 c 3.59173,0 4.21629,5.56386 4.16436,8.21497 0,0.41122 -0.20787,0.37458 -0.36427,0.19503 -0.52056,-0.55965 -0.91068,-1.56782 -2.00416,-1.60486 l -18.84349,-0.0779 c -0.88482,0 -1.37945,1.1193 -1.84797,1.86619 -0.10861,0.15582 -0.36427,0.19503 -0.33841,-0.15581 0.28662,-3.02456 1.35377,-8.47631 4.3204,-8.43885 z"
   id="path1208-5"
   inkscape:connector-curvature="0" /><path
   style="mix-blend-mode:normal;fill:#000000;fill-rule:nonzero;stroke:#000000;stroke-width:0.193161;stroke-linecap:round;stroke-linejoin:round;stroke-miterlimit:10;stroke-dasharray:none;stroke-dashoffset:0"
   d="m 576.40038,96.135808 -1.77488,0.03168 c 0,0 0.22247,53.934532 -1.25268,80.861052 -0.0302,0.25727 -0.004,0.57744 -0.14253,0.83473 -0.057,0.11961 -0.1908,0.25411 -0.27225,0.33961 -0.24508,0.20028 -0.76528,0.37087 -0.76528,0.37087 -0.73679,0.20028 -1.47131,0.40538 -2.09893,0.63426 -0.59142,0.20661 -1.38379,0.67018 -1.50238,0.7734 -0.0426,0.0158 -0.0856,0.0447 -0.1282,0.0597 5.7e-4,4.8e-4 -0.0302,0.0317 -0.0302,0.0317 -1.4891,0.82426 -2.27565,2.29194 -2.27565,4.78507 0,2.83584 -0.46172,5.92586 1.69392,7.2435 0.92777,0.57295 3.41474,0.51763 4.58805,0.51763 3.2745,0 6.05791,-1.95238 6.87852,-4.97851 0.0113,-0.0158 0.0426,-0.0158 0.057,-0.0317 0.38196,-0.54455 0.46462,-2.80596 0,-4.06628 -0.49166,-1.3181 -1.61339,-2.89438 -2.26824,-4.09741 -0.24508,-0.40091 -0.4332,-1.20874 -0.51585,-1.92482 -0.057,-0.28735 -0.0856,-0.97387 -0.0856,-0.97387 z"
   id="path4534"
   inkscape:connector-curvature="0" /><path
   style="mix-blend-mode:normal;fill:#ff00cc;fill-rule:nonzero;stroke:#000000;stroke-width:0.362363;stroke-linecap:round;stroke-linejoin:round;stroke-miterlimit:10;stroke-dasharray:none;stroke-dashoffset:0"
   inkscape:connector-curvature="0"
   id="path4539"
   d="m 571.49875,94.466977 c 0,-2.874082 1.79163,-5.204541 4.00093,-5.204541 2.20955,0 4.00118,2.330459 4.00118,5.204541 0,2.874081 -1.79163,5.204222 -4.00118,5.204222 -2.20955,0 -4.00093,-2.330462 -4.00093,-5.204222 z" /><ellipse
   style="fill:#000000"
   id="path779"
   cx="497.25439"
   cy="212.47588"
   rx="7.4473886"
   ry="6.9819269" /><path
   d="m 498.89729,261.77641 c 44.89484,0 66.05951,-34.61401 66.05951,-34.61401 0.64136,12.58722 0.64136,6.29144 1.92419,18.87985 -1.92419,6.29144 -8.33779,22.02653 -12.82727,25.17349 -16.67519,15.73291 -37.19845,15.73291 -55.79778,15.73291 -19.24062,0 -39.12252,0 -56.43907,-15.73291 -4.48955,-3.15167 -10.26173,-15.73289 -12.82715,-25.17349 1.28278,-12.58623 1.28278,-6.29137 1.92394,-18.87985 0,0 23.08873,34.61401 67.9835,34.61401 z"
   id="path1048"
   inkscape:connector-curvature="0"
   style="mix-blend-mode:normal;fill:#1e1e1e;fill-rule:nonzero;stroke:#000000;stroke-width:0.710302;stroke-linecap:butt;stroke-linejoin:miter;stroke-miterlimit:10;stroke-dasharray:none;stroke-dashoffset:0" /></g>
<g
   id="skeleton_1_">
	<circle
   id="rightShoulder"
   cx="321.4292"
   cy="295.07578"
   r="8.1999998" />
	<circle
   id="rightElbow"
   cx="165.54666"
   cy="305.80988"
   r="8.1999998" />
	
		<circle
   id="rightWrist"
   transform="matrix(0.9951,-0.09853767,0.09853767,0.9951,-29.0274,13.8698)"
   cx="125.9"
   cy="300.79999"
   r="8.1999998" />
	<circle
   id="rightHip"
   cx="400.27753"
   cy="539.57922"
   r="8.1999998" />
	<circle
   id="rightKnee"
   cx="404.81567"
   cy="603.8941"
   r="8.1999998" />
	<circle
   id="rightAnkle"
   cx="406.05692"
   cy="682.18542"
   r="8.1999998" />
	<circle
   style="display:inline"
   id="leftShoulder"
   cx="657.83173"
   cy="294.92059"
   r="8.1999998" />
	<circle
   id="leftElbow"
   cx="827.70953"
   cy="302.77682"
   r="8.1999998" />
	<circle
   id="leftWrist"
   cx="873.5"
   cy="300.29999"
   r="8.1999998" />
	<circle
   id="leftHip"
   cx="586.80707"
   cy="540.33075"
   r="8.1999998" />
	<circle
   id="leftKnee"
   cx="586.80707"
   cy="599.5498"
   r="8.1999998" />
	<circle
   id="leftAnkle"
   cx="588.04834"
   cy="685.28851"
   r="8.1999998" />
	<polygon
   transform="matrix(1.5821046,0,0,1.1211493,-300.75536,-36.613367)"
   style="fill:none;stroke:#000000;stroke-miterlimit:10"
   points="443,510.4 559.4,509.6 605.6,294.6 392.7,294.6 "
   id="polygon628" />
	<polyline
   transform="matrix(0.7495345,0,0,1,26.943025,0.00743912)"
   style="fill:none;stroke:#000000;stroke-miterlimit:10"
   points="391.7,294.6 289,294.6 125.7,300.9  "
   id="polyline630" />
	<polyline
   transform="matrix(0.80236282,0,0,1.0019919,170.26074,-0.18495534)"
   style="fill:none;stroke:#000000;stroke-miterlimit:10"
   points="607.1,294.2 710.3,294.2 873.6,300.6  "
   id="polyline632" />
	<polyline
   transform="matrix(1.0074516,0,0,0.37797785,-47.698916,349.75659)"
   style="fill:none;stroke:#000000;stroke-miterlimit:10"
   points="443,510.4 449.4,670.6 449.4,878.6  "
   id="polyline634" />
	<polyline
   transform="matrix(1,0,0,0.37602052,27.927707,352.73442)"
   style="fill:none;stroke:#000000;stroke-miterlimit:10"
   points="559.4,509.6 559.4,670.6 559.4,878.6  "
   id="polyline636" />
	<circle
   id="rightEye0"
   cx="468.60001"
   cy="160.2"
   r="0.80000001" />
	<circle
   id="rightBrow1"
   cx="466.39999"
   cy="148.3"
   r="0.80000001" />
	<circle
   id="rightBrow4"
   cx="489.70001"
   cy="151.3"
   r="0.80000001" />
	<circle
   id="nose1"
   cx="497.60001"
   cy="161.2"
   r="0.80000001" />
	<circle
   id="rightBrow3"
   cx="479.89999"
   cy="147.3"
   r="0.80000001" />
	<circle
   id="rightEye1"
   cx="473.79999"
   cy="156.5"
   r="0.80000001" />
	<circle
   id="rightBrow0"
   cx="462.39999"
   cy="152"
   r="0.80000001" />
	<circle
   id="rightBrow2"
   cx="472.60001"
   cy="147.3"
   r="0.80000001" />
	<circle
   id="rightEye5"
   cx="473.79999"
   cy="162.5"
   r="0.80000001" />
	<circle
   id="rightEye2"
   cx="480.10001"
   cy="156.5"
   r="0.80000001" />
	<circle
   id="rightEye3"
   cx="485.29999"
   cy="160.7"
   r="0.80000001" />
	<circle
   id="nose0"
   cx="497.60001"
   cy="155.39999"
   r="0.80000001" />
	<circle
   id="nose3"
   cx="497.60001"
   cy="173.8"
   r="0.80000001" />
	<circle
   id="rightNose0"
   cx="486.89999"
   cy="178.3"
   r="0.80000001" />
	<circle
   id="rightMouthCorner"
   cx="480.89999"
   cy="200.39999"
   r="0.80000001" />
	<circle
   id="rightNose1"
   cx="492.10001"
   cy="178.3"
   r="0.80000001" />
	<circle
   id="rightUpperLipTop0"
   cx="487.79999"
   cy="197"
   r="0.80000001" />
	<circle
   id="nose2"
   cx="497.60001"
   cy="166.7"
   r="0.80000001" />
	<circle
   id="nose4"
   cx="497.60001"
   cy="179.10001"
   r="0.80000001" />
	<circle
   id="upperLipTopMid"
   cx="498.39999"
   cy="196.8"
   r="0.80000001" />
	<circle
   id="rightUpperLipTop1"
   cx="494.29999"
   cy="195.89999"
   r="0.80000001" />
	<path
   id="rightMiddleLip"
   d="m 484.5,199.9 c 0.4,0 0.8,0.4 0.8,0.8 0,0.4 -0.4,0.8 -0.8,0.8 -0.4,0 -0.8,-0.4 -0.8,-0.8 0,-0.4 0.4,-0.8 0.8,-0.8 z" />
	<circle
   id="lowerLipBottomMid"
   cx="498.39999"
   cy="210"
   r="0.80000001" />
	<circle
   id="upperLipBottomMid"
   cx="498.39999"
   cy="200.39999"
   r="0.80000001" />
	<circle
   id="lowerLipTopMid"
   cx="498.39999"
   cy="203.5"
   r="0.80000001" />
	<circle
   id="rightUpperLipBottom1"
   cx="494.5"
   cy="199.89999"
   r="0.80000001" />
	<circle
   id="rightLowerLipTop0"
   cx="494.5"
   cy="202.8"
   r="0.80000001" />
	<circle
   id="rightLowerLipBottom1"
   cx="494.29999"
   cy="209.5"
   r="0.80000001" />
	<circle
   id="rightLowerLipBottom0"
   cx="487.29999"
   cy="206.7"
   r="0.80000001" />
	<circle
   id="rightEye4"
   cx="480.10001"
   cy="161.7"
   r="0.80000001" />
	<circle
   id="jawMid"
   cx="498.39999"
   cy="235.8"
   r="0.80000001" />
	<circle
   id="rightJaw7"
   cx="483.39999"
   cy="232.60001"
   r="0.80000001" />
	<circle
   id="rightJaw6"
   cx="473.39999"
   cy="225.89999"
   r="0.80000001" />
	<circle
   id="rightJaw5"
   cx="461.79999"
   cy="213.39999"
   r="0.80000001" />
	<circle
   id="rightJaw4"
   cx="455"
   cy="193.39999"
   r="0.80000001" />
	<circle
   id="rightJaw3"
   cx="454.20001"
   cy="171.7"
   r="0.80000001" />
	<circle
   id="rightJaw2"
   cx="454.20001"
   cy="162.2"
   r="0.80000001" />
	<circle
   id="rightJaw1"
   cx="455"
   cy="150.5"
   r="0.80000001" />
	<circle
   id="rightJaw0"
   cx="457.5"
   cy="141.2"
   r="0.80000001" />
	<circle
   id="topMid"
   cx="498.60001"
   cy="115.1"
   r="0.80000001" />
	<circle
   id="leftTop0"
   cx="518.29999"
   cy="117.6"
   r="0.80000001" />
	<circle
   id="leftTop1"
   cx="530.90002"
   cy="127.1"
   r="0.80000001" />
	<circle
   id="leftEye0"
   cx="528.20001"
   cy="160.2"
   r="0.80000001" />
	<circle
   id="leftBrow1"
   cx="530.09998"
   cy="148.7"
   r="0.80000001" />
	<circle
   id="leftBrow4"
   cx="506.5"
   cy="150.8"
   r="0.80000001" />
	<circle
   id="leftBrow3"
   cx="516.5"
   cy="147.60001"
   r="0.80000001" />
	<circle
   id="leftEye1"
   cx="523"
   cy="156.5"
   r="0.80000001" />
	<circle
   id="leftBrow0"
   cx="534.09998"
   cy="151.60001"
   r="0.80000001" />
	<circle
   id="leftBrow2"
   cx="523.79999"
   cy="147.2"
   r="0.80000001" />
	<circle
   id="leftEye5"
   cx="523"
   cy="162.5"
   r="0.80000001" />
	<circle
   id="leftEye2"
   cx="516.70001"
   cy="156.5"
   r="0.80000001" />
	<circle
   id="leftEye3"
   cx="511.5"
   cy="160.7"
   r="0.80000001" />
	<circle
   id="leftNose0"
   cx="508"
   cy="178.3"
   r="0.80000001" />
	<circle
   id="leftMouthCorner"
   cx="515.90002"
   cy="200.39999"
   r="0.80000001" />
	<circle
   id="leftNose1"
   cx="503.20001"
   cy="178.3"
   r="0.80000001" />
	<circle
   id="leftUpperLipTop0"
   cx="509"
   cy="197"
   r="0.80000001" />
	<circle
   id="leftUpperLipTop1"
   cx="502.60001"
   cy="195.89999"
   r="0.80000001" />
	<path
   id="leftMiddleLip"
   d="m 512.3,199.9 c 0.4,0 0.8,0.4 0.8,0.8 0,0.4 -0.4,0.8 -0.8,0.8 -0.4,0 -0.8,-0.4 -0.8,-0.8 0,-0.4 0.4,-0.8 0.8,-0.8 z" />
	<circle
   id="leftUpperLipBottom1"
   cx="502.39999"
   cy="199.89999"
   r="0.80000001" />
	<circle
   id="leftLowerLipTop0"
   cx="502.39999"
   cy="202.8"
   r="0.80000001" />
	<circle
   id="leftLowerLipBottom1"
   cx="502.60001"
   cy="209.5"
   r="0.80000001" />
	<circle
   id="leftLowerLipBottom0"
   cx="509.5"
   cy="206.7"
   r="0.80000001" />
	<circle
   id="leftEye4"
   cx="516.70001"
   cy="161.7"
   r="0.80000001" />
	<circle
   id="leftJaw7"
   cx="513.20001"
   cy="233"
   r="0.80000001" />
	<circle
   id="leftJaw6"
   cx="523.20001"
   cy="226.3"
   r="0.80000001" />
	<circle
   id="leftJaw5"
   cx="534.79999"
   cy="213.7"
   r="0.80000001" />
	<circle
   id="leftJaw4"
   cx="541.59998"
   cy="193.7"
   r="0.80000001" />
	<circle
   id="leftJaw3"
   cx="542.40002"
   cy="172.10001"
   r="0.80000001" />
	<circle
   id="leftJaw2"
   cx="542.40002"
   cy="162.5"
   r="0.80000001" />
	<circle
   id="leftJaw1"
   cx="541.59998"
   cy="150.8"
   r="0.80000001" />
	<circle
   id="leftJaw0"
   cx="539.09998"
   cy="141.60001"
   r="0.80000001" />
	<polyline
   style="fill:none;stroke:#000000;stroke-miterlimit:10"
   points="498.4,115.1 478.6,117.6 466.1,127.1 457.5,141.2    455,150.5 454.2,162.2 454.2,171.7 455,193.4 461.8,213.4 473.4,225.9 483.4,232.6 498.4,235.8 513.2,233 523.2,226.3 534.8,213.7    541.6,193.7 542.4,172.1 542.4,162.5 541.6,150.8 539.1,141.6 530.9,127.1 518.3,117.6 498.4,115.1  "
   id="polyline709" />
	<polyline
   style="fill:none;stroke:#000000;stroke-miterlimit:10"
   points="462.4,152 466.4,148.3 472.6,147.3 479.9,147.3    489.7,151.3  "
   id="polyline711" />
	<polygon
   style="fill:none;stroke:#000000;stroke-miterlimit:10"
   points="480.1,161.7 473.8,162.5 468.6,160.2 473.8,156.5 480.1,156.5 485.3,160.7 "
   id="polygon713" />
	<polyline
   style="fill:none;stroke:#000000;stroke-miterlimit:10"
   points="486.9,178.3 492.1,178.3 497.6,179.1 497.6,173.8    497.6,166.7 497.6,161.2 497.6,155.4  "
   id="polyline715" />
	<polyline
   style="fill:none;stroke:#000000;stroke-miterlimit:10"
   points="533.9,151.6 529.9,148.7 523.6,147.2 516.3,147.6    506.3,150.8  "
   id="polyline717" />
	<polygon
   style="fill:none;stroke:#000000;stroke-miterlimit:10"
   points="516.4,161.7 522.7,162.5 528,160.2 522.7,156.5 516.4,156.5 511.3,160.7 "
   id="polygon719" />
	<polyline
   style="fill:none;stroke:#000000;stroke-miterlimit:10"
   points="508,178.3 503,178.3 497.6,179.1  "
   id="polyline721" />
	<polygon
   style="fill:none;stroke:#000000;stroke-miterlimit:10"
   points="502.6,195.9 509,197 515.9,200.4 509.5,206.7 502.4,209.5 498.4,210 494.3,209.5 487.3,206.7 480.9,200.4 487.8,197 494.3,195.9 498.4,196.8 "
   id="polygon723" />
	<polyline
   style="fill:none;stroke:#000000;stroke-miterlimit:10"
   points="480.9,200.4 484.5,200.7 494.5,199.9 498.4,200.4    502.4,199.9 512.3,200.7 515.9,200.4  "
   id="polyline725" />
	<polyline
   style="fill:none;stroke:#000000;stroke-miterlimit:10"
   points="480.9,200.4 484.5,200.7 494.5,202.8 498.4,203.6    502.4,202.8 512.3,200.7 515.9,200.4  "
   id="polyline727" />
	<circle
   id="rightTop0"
   cx="478.70001"
   cy="117.6"
   r="0.80000001" />
	<circle
   id="rightTop1"
   cx="466.10001"
   cy="127.1"
   r="0.80000001" />
</g>
</svg>
